<mxfile host="app.diagrams.net" modified="2023-06-21T09:38:48.900Z" agent="Mozilla/5.0 (X11; Ubuntu; Linux x86_64; rv:94.0) Gecko/20100101 Firefox/94.0" version="21.5.0" etag="gtmjBLe5u1A5DSp5Hi8O" type="github">
  <diagram name="Page-1" id="D4eMkHF2mWHqXU1UvIfG">
    <mxGraphModel>
      <root>
        <mxCell id="0" />
        <mxCell id="1" parent="0" />
      </root>
    </mxGraphModel>
  </diagram>
</mxfile>
